<!DOCTYPE svg PUBLIC "-//W3C//DTD SVG 1.1//EN" "http://www.w3.org/Graphics/SVG/1.1/DTD/svg11.dtd">
<!-- Uploaded to: SVG Repo, www.svgrepo.com, Transformed by: SVG Repo Mixer Tools -->
<svg height="800px" width="800px" version="1.1" id="Capa_1" xmlns="http://www.w3.org/2000/svg" xmlns:xlink="http://www.w3.org/1999/xlink" viewBox="0 0 498.923 498.923" xml:space="preserve" fill="#000000">

<g id="SVGRepo_bgCarrier" stroke-width="0"/>

<g id="SVGRepo_tracerCarrier" stroke-linecap="round" stroke-linejoin="round"/>

<g id="SVGRepo_iconCarrier"> <g> <g> <g> <path style="fill:#F03B61;" d="M249.462,0C151.018,0,70.951,80.106,70.951,178.511c0,92.436,133.617,192.453,172.248,315.948 c0.83,2.667,3.322,4.484,6.116,4.465c2.804-0.039,5.256-1.876,6.048-4.563c37.478-126.533,172.6-223.307,172.609-315.869 C427.963,80.106,347.886,0,249.462,0z M249.462,313.925c-77.184,0-139.987-62.812-139.987-139.987 c0-77.184,62.803-139.987,139.987-139.987c77.165,0,139.977,62.803,139.977,139.987 C389.439,251.113,326.626,313.925,249.462,313.925z"/> </g> </g> </g> </g>

</svg>