<!DOCTYPE svg PUBLIC "-//W3C//DTD SVG 1.1//EN" "http://www.w3.org/Graphics/SVG/1.1/DTD/svg11.dtd">
<!-- Uploaded to: SVG Repo, www.svgrepo.com, Transformed by: SVG Repo Mixer Tools -->
<svg fill="#F03B61" height="800px" width="800px" version="1.1" id="Layer_1" xmlns="http://www.w3.org/2000/svg" xmlns:xlink="http://www.w3.org/1999/xlink" viewBox="0 0 512 512" xml:space="preserve" stroke="#ff2f92">

<g id="SVGRepo_bgCarrier" stroke-width="0"/>

<g id="SVGRepo_tracerCarrier" stroke-linecap="round" stroke-linejoin="round"/>

<g id="SVGRepo_iconCarrier"> <g> <g> <g> <path d="M305.035,108.335c-2.261-0.384-4.608-0.597-6.976-0.597c-23.232,0-42.048,18.837-42.048,42.069 c0-23.232-18.837-42.069-42.048-42.069c-0.235,0-0.469,0-0.704,0.021c-30.08,0.491-45.056,37.397-26.283,60.885l69.035,86.272 l69.355-86.699C342.475,146.82,332.064,112.836,305.035,108.335z"/> <path d="M426.667,170.667C426.667,76.41,350.257,0,256,0S85.333,76.41,85.333,170.667c0,87.031,65.146,158.843,149.333,169.342 v150.658c0,11.782,9.551,21.333,21.333,21.333s21.333-9.551,21.333-21.333V340.008 C361.521,329.51,426.667,257.698,426.667,170.667z M256,298.667c-70.693,0-128-57.307-128-128s57.307-128,128-128 s128,57.307,128,128S326.693,298.667,256,298.667z"/> </g> </g> </g> </g>

</svg>