<!DOCTYPE svg PUBLIC "-//W3C//DTD SVG 1.1//EN" "http://www.w3.org/Graphics/SVG/1.1/DTD/svg11.dtd">
<!-- Uploaded to: SVG Repo, www.svgrepo.com, Transformed by: SVG Repo Mixer Tools -->
<svg fill="#F03B61" height="800px" width="800px" version="1.1" id="Capa_1" xmlns="http://www.w3.org/2000/svg" xmlns:xlink="http://www.w3.org/1999/xlink" viewBox="0 0 488.6 488.6" xml:space="preserve" stroke="#ff7d78">

<g id="SVGRepo_bgCarrier" stroke-width="0"/>

<g id="SVGRepo_tracerCarrier" stroke-linecap="round" stroke-linejoin="round"/>

<g id="SVGRepo_iconCarrier"> <g> <path d="M115,363.836v80.1c0,7.4,9,11.1,14.2,5.9l77.3-77.3h114c92.8,0,168.1-75.3,168.1-168.1s-75.3-168.1-168.1-168.1H168.1 c-92.9,0-168.1,75.3-168.1,168.1C0,278.736,48.2,341.636,115,363.836z M183.5,158.936c7.8-7.8,18.2-12.1,29.2-12.1 c11.1,0,21.5,4.3,29.3,12.1l2.3,2.3l2.3-2.3c7.8-7.8,18.2-12.1,29.3-12.1c11,0,21.4,4.3,29.2,12.1c7.8,7.8,12.1,18.2,12.1,29.3 c0,11-4.3,21.4-12.1,29.3l-56.2,56.2c-1.2,1.2-2.8,1.8-4.5,1.8c-1.7,0-3.3-0.7-4.5-1.8l-56.3-56.3c-7.8-7.8-12.1-18.2-12.1-29.2 C171.4,177.136,175.7,166.736,183.5,158.936z"/> </g> </g>

</svg>