<!DOCTYPE svg PUBLIC "-//W3C//DTD SVG 1.1//EN" "http://www.w3.org/Graphics/SVG/1.1/DTD/svg11.dtd">
<!-- Uploaded to: SVG Repo, www.svgrepo.com, Transformed by: SVG Repo Mixer Tools -->
<svg fill="#F03B61" width="800px" height="800px" viewBox="0 0 512 512" version="1.1" xml:space="preserve" xmlns="http://www.w3.org/2000/svg" xmlns:xlink="http://www.w3.org/1999/xlink">

<g id="SVGRepo_bgCarrier" stroke-width="0"/>

<g id="SVGRepo_tracerCarrier" stroke-linecap="round" stroke-linejoin="round"/>

<g id="SVGRepo_iconCarrier"> <g id="ballon-celebration-love-_heart-valentine"> <path d="M352,185.12C352,122.64,309.04,72,256,72s-96,50.64-96,113.12c0,51.76,29.52,95.44,69.76,108.88l-12.827,24.803 c-3.187,6.161,2.438,13.238,9.128,11.408c6.735-1.843,14.537-3.598,21.94-4.425c0.001,31.236,0.248,78.172,50.874,120.363 c1.5,1.242,3.313,1.852,5.117,1.852c2.297,0,4.57-0.977,6.156-2.875c2.828-3.398,2.367-8.445-1.023-11.273 c-44.893-37.408-45.123-78.169-45.124-108.066c7.402,0.828,15.204,2.583,21.938,4.425c6.69,1.831,12.315-5.247,9.128-11.408 L282.24,294C322.48,280.56,352,236.88,352,185.12z M301.76,201.6l-32.48,32.88c-7.36,7.44-19.2,7.44-26.56,0l-32.48-32.88 c-11.84-11.92-13.92-31.2-3.6-44.56c12.4-16.16,35.52-17.28,49.36-3.28c13.84-14,36.96-12.88,49.36,3.28 C315.68,170.4,313.6,189.68,301.76,201.6z"/> </g> <g id="Layer_1"/> </g>

</svg>